<svg xmlns="http://www.w3.org/2000/svg" viewBox="0 0 1618 1000" width="1618" height="1000" font-family="Montserrat, 'Segoe UI', Arial, sans-serif">
  <defs>
    <linearGradient id="b1bg" x1="0" y1="0" x2="1" y2="1">
      <stop offset="0" stop-color="#191920"/>
      <stop offset="0.55" stop-color="#101015"/>
      <stop offset="1" stop-color="#0a0a0d"/>
    </linearGradient>
    <radialGradient id="b1glow" cx="0.2" cy="0.18" r="0.75">
      <stop offset="0" stop-color="#C9A84C" stop-opacity="0.16"/>
      <stop offset="1" stop-color="#C9A84C" stop-opacity="0"/>
    </radialGradient>
    <linearGradient id="b1gold" x1="0" y1="0" x2="1" y2="1">
      <stop offset="0" stop-color="#F4D873"/>
      <stop offset="0.5" stop-color="#C9A84C"/>
      <stop offset="1" stop-color="#9A7611"/>
    </linearGradient>
  </defs>

  <rect width="1618" height="1000" fill="url(#b1bg)"/>
  <rect width="1618" height="1000" fill="url(#b1glow)"/>

  <!-- nozik fon dekori -->
  <circle cx="120" cy="900" r="260" fill="none" stroke="#ffffff" stroke-opacity="0.04" stroke-width="2"/>
  <circle cx="1500" cy="120" r="180" fill="none" stroke="#C9A84C" stroke-opacity="0.07" stroke-width="2"/>

  <!-- ===== Brend lockup ===== -->
  <g transform="translate(110 120)">
    <rect width="130" height="130" rx="30" fill="url(#b1gold)"/>
    <rect x="5" y="5" width="120" height="120" rx="26" fill="none" stroke="#ffffff" stroke-opacity="0.25" stroke-width="2"/>
    <text x="65" y="92" fill="#15110a" font-size="60" font-weight="800" text-anchor="middle" letter-spacing="1">A1</text>
  </g>
  <text x="270" y="178" fill="#ffffff" font-size="92" font-weight="800" letter-spacing="1">AVTO A1</text>
  <text x="274" y="232" fill="#C9A84C" font-size="33" font-weight="600" letter-spacing="3">AVTO EHTIYOT QISMLARI SAVDOSI</text>

  <line x1="110" y1="300" x2="900" y2="300" stroke="#ffffff" stroke-opacity="0.10" stroke-width="2"/>

  <!-- ===== Biz haqimizda ===== -->
  <text x="110" y="370" fill="#C9A84C" font-size="30" font-weight="700" letter-spacing="5">BIZ HAQIMIZDA</text>

  <g fill="#cdcdd3" font-size="37" font-weight="500">
    <text x="110" y="438">Rossiya va Xitoy zavodlaridan kelgan</text>
    <text x="110" y="494">original avto ehtiyot qismlari. Keng</text>
    <text x="110" y="550">assortiment, ishonchli sifat va butun</text>
    <text x="110" y="606">O&#8216;zbekiston bo&#8216;ylab tezkor yetkazib berish.</text>
  </g>

  <!-- ===== Pastki chip'lar ===== -->
  <g transform="translate(110 690)" font-size="28" font-weight="700">
    <g>
      <rect width="252" height="74" rx="37" fill="#ffffff" fill-opacity="0.04" stroke="#C9A84C" stroke-opacity="0.5" stroke-width="1.5"/>
      <circle cx="42" cy="37" r="7" fill="#C9A84C"/>
      <text x="72" y="47" fill="#ececef">Original tovar</text>
    </g>
    <g transform="translate(276 0)">
      <rect width="262" height="74" rx="37" fill="#ffffff" fill-opacity="0.04" stroke="#C9A84C" stroke-opacity="0.5" stroke-width="1.5"/>
      <circle cx="42" cy="37" r="7" fill="#C9A84C"/>
      <text x="72" y="47" fill="#ececef">14 kun kafolat</text>
    </g>
    <g transform="translate(562 0)">
      <rect width="270" height="74" rx="37" fill="#ffffff" fill-opacity="0.04" stroke="#C9A84C" stroke-opacity="0.5" stroke-width="1.5"/>
      <circle cx="42" cy="37" r="7" fill="#C9A84C"/>
      <text x="72" y="47" fill="#ececef">Tez yetkazish</text>
    </g>
  </g>

  <!-- ===== Kontakt kartasi (glass) ===== -->
  <g transform="translate(1010 130)">
    <rect width="498" height="740" rx="30" fill="#ffffff" fill-opacity="0.05"/>
    <rect width="498" height="740" rx="30" fill="none" stroke="#ffffff" stroke-opacity="0.12" stroke-width="1.5"/>
    <rect x="0" y="0" width="498" height="6" rx="3" fill="url(#b1gold)"/>

    <text x="44" y="92" fill="#ffffff" font-size="34" font-weight="800" letter-spacing="3">BOG&#8216;LANISH</text>
    <line x1="44" y1="118" x2="454" y2="118" stroke="#ffffff" stroke-opacity="0.10" stroke-width="1.5"/>

    <!-- Telefon -->
    <g transform="translate(44 168)">
      <rect width="64" height="64" rx="18" fill="#C9A84C" fill-opacity="0.14"/>
      <g transform="translate(20 14)" fill="none" stroke="#F4D873" stroke-width="3.5" stroke-linecap="round" stroke-linejoin="round">
        <rect x="0" y="0" width="24" height="38" rx="6"/>
        <line x1="9" y1="6" x2="15" y2="6"/>
        <circle cx="12" cy="31" r="1.6" fill="#F4D873" stroke="none"/>
      </g>
      <text x="88" y="26" fill="#8a8a92" font-size="20" font-weight="600" letter-spacing="2">TELEFON</text>
      <text x="88" y="56" fill="#ffffff" font-size="32" font-weight="700">+998 88 289 30 30</text>
    </g>

    <!-- Telegram -->
    <g transform="translate(44 268)">
      <rect width="64" height="64" rx="18" fill="#C9A84C" fill-opacity="0.14"/>
      <g transform="translate(15 18)">
        <path d="M2 14 L40 1 L31 38 L20 29 L14 33 Z" fill="#F4D873"/>
        <path d="M40 1 L16 27" fill="none" stroke="#15110a" stroke-opacity="0.35" stroke-width="2"/>
      </g>
      <text x="88" y="26" fill="#8a8a92" font-size="20" font-weight="600" letter-spacing="2">TELEGRAM</text>
      <text x="88" y="56" fill="#ffffff" font-size="32" font-weight="700">@anvaraxtamov2004</text>
    </g>

    <!-- Manzil / xizmat -->
    <g transform="translate(44 368)">
      <rect width="64" height="64" rx="18" fill="#C9A84C" fill-opacity="0.14"/>
      <g transform="translate(20 14)" fill="none" stroke="#F4D873" stroke-width="3.5" stroke-linejoin="round">
        <path d="M12 0 C5 0 0 5 0 12 C0 22 12 36 12 36 C12 36 24 22 24 12 C24 5 19 0 12 0 Z"/>
        <circle cx="12" cy="12" r="4.5"/>
      </g>
      <text x="88" y="26" fill="#8a8a92" font-size="20" font-weight="600" letter-spacing="2">XIZMAT HUDUDI</text>
      <text x="88" y="56" fill="#ffffff" font-size="32" font-weight="700">Butun O&#8216;zbekiston</text>
    </g>

    <line x1="44" y1="492" x2="454" y2="492" stroke="#ffffff" stroke-opacity="0.10" stroke-width="1.5"/>

    <!-- Ish vaqti / CTA -->
    <g transform="translate(44 524)">
      <text x="0" y="26" fill="#8a8a92" font-size="20" font-weight="600" letter-spacing="2">ISH VAQTI</text>
      <text x="0" y="62" fill="#ffffff" font-size="30" font-weight="700">Har kuni • 09:00 &#8211; 21:00</text>
    </g>

    <g transform="translate(44 624)">
      <rect width="410" height="80" rx="40" fill="url(#b1gold)"/>
      <text x="205" y="52" fill="#15110a" font-size="30" font-weight="800" text-anchor="middle" letter-spacing="1">ONLAYN BUYURTMA BERING</text>
    </g>
  </g>
</svg>
